<?xml version="1.0" encoding="us-ascii" standalone="no"?><svg xmlns="http://www.w3.org/2000/svg" xmlns:xlink="http://www.w3.org/1999/xlink" contentStyleType="text/css" height="279px" preserveAspectRatio="none" style="width:253px;height:279px;background:#FFFFFF;" version="1.1" viewBox="0 0 253 279" width="253px" zoomAndPan="magnify"><defs/><g><ellipse cx="132.25" cy="20" fill="#222222" rx="10" ry="10" style="stroke:#222222;stroke-width:1.0;"/><rect fill="#F1F1F1" height="34.1328" rx="12.5" ry="12.5" style="stroke:#181818;stroke-width:0.5;" width="102" x="81.25" y="50"/><text fill="#000000" font-family="sans-serif" font-size="12" lengthAdjust="spacing" textLength="82" x="91.25" y="71.6016">Receive Order</text><polygon fill="#F1F1F1" points="116.75,104.1328,147.75,104.1328,159.75,116.1328,147.75,128.1328,116.75,128.1328,104.75,116.1328,116.75,104.1328" style="stroke:#181818;stroke-width:0.5;"/><text fill="#000000" font-family="sans-serif" font-size="11" lengthAdjust="spacing" textLength="31" x="116.75" y="120.29">Valid?</text><text fill="#000000" font-family="sans-serif" font-size="11" lengthAdjust="spacing" textLength="19" x="85.75" y="113.8125">Yes</text><text fill="#000000" font-family="sans-serif" font-size="11" lengthAdjust="spacing" textLength="15" x="159.75" y="113.8125">No</text><rect fill="#F1F1F1" height="34.1328" rx="12.5" ry="12.5" style="stroke:#181818;stroke-width:0.5;" width="117" x="11" y="138.1328"/><text fill="#000000" font-family="sans-serif" font-size="12" lengthAdjust="spacing" textLength="97" x="21" y="159.7344">Process Payment</text><rect fill="#F1F1F1" height="34.1328" rx="12.5" ry="12.5" style="stroke:#181818;stroke-width:0.5;" width="82" x="28.5" y="192.2656"/><text fill="#000000" font-family="sans-serif" font-size="12" lengthAdjust="spacing" textLength="62" x="38.5" y="213.8672">Ship Order</text><ellipse cx="69.5" cy="257.3984" fill="none" rx="11" ry="11" style="stroke:#222222;stroke-width:1.0;"/><ellipse cx="69.5" cy="257.3984" fill="#222222" rx="6" ry="6" style="stroke:#222222;stroke-width:1.0;"/><rect fill="#F1F1F1" height="34.1328" rx="12.5" ry="12.5" style="stroke:#181818;stroke-width:0.5;" width="94" x="148" y="138.1328"/><text fill="#000000" font-family="sans-serif" font-size="12" lengthAdjust="spacing" textLength="74" x="158" y="159.7344">Reject Order</text><ellipse cx="195" cy="203.2656" fill="none" rx="11" ry="11" style="stroke:#222222;stroke-width:1.0;"/><ellipse cx="195" cy="203.2656" fill="#222222" rx="6" ry="6" style="stroke:#222222;stroke-width:1.0;"/><line style="stroke:#181818;stroke-width:1.0;" x1="132.25" x2="132.25" y1="30" y2="50"/><polygon fill="#181818" points="128.25,40,132.25,50,136.25,40,132.25,44" style="stroke:#181818;stroke-width:1.0;"/><line style="stroke:#181818;stroke-width:1.0;" x1="69.5" x2="69.5" y1="172.2656" y2="192.2656"/><polygon fill="#181818" points="65.5,182.2656,69.5,192.2656,73.5,182.2656,69.5,186.2656" style="stroke:#181818;stroke-width:1.0;"/><line style="stroke:#181818;stroke-width:1.0;" x1="69.5" x2="69.5" y1="226.3984" y2="246.3984"/><polygon fill="#181818" points="65.5,236.3984,69.5,246.3984,73.5,236.3984,69.5,240.3984" style="stroke:#181818;stroke-width:1.0;"/><line style="stroke:#181818;stroke-width:1.0;" x1="195" x2="195" y1="172.2656" y2="192.2656"/><polygon fill="#181818" points="191,182.2656,195,192.2656,199,182.2656,195,186.2656" style="stroke:#181818;stroke-width:1.0;"/><line style="stroke:#181818;stroke-width:1.0;" x1="104.75" x2="69.5" y1="116.1328" y2="116.1328"/><line style="stroke:#181818;stroke-width:1.0;" x1="69.5" x2="69.5" y1="116.1328" y2="138.1328"/><polygon fill="#181818" points="65.5,128.1328,69.5,138.1328,73.5,128.1328,69.5,132.1328" style="stroke:#181818;stroke-width:1.0;"/><line style="stroke:#181818;stroke-width:1.0;" x1="159.75" x2="195" y1="116.1328" y2="116.1328"/><line style="stroke:#181818;stroke-width:1.0;" x1="195" x2="195" y1="116.1328" y2="138.1328"/><polygon fill="#181818" points="191,128.1328,195,138.1328,199,128.1328,195,132.1328" style="stroke:#181818;stroke-width:1.0;"/><line style="stroke:#181818;stroke-width:1.0;" x1="132.25" x2="132.25" y1="84.1328" y2="104.1328"/><polygon fill="#181818" points="128.25,94.1328,132.25,104.1328,136.25,94.1328,132.25,98.1328" style="stroke:#181818;stroke-width:1.0;"/><!--SRC=[NSj12i8m48NX_PpYBTChj0jlO4i5mML8Nkb8JKfc47fxKN3JxS__cSVc8ltCH7qJOyjiWuWk2FUuQRvqy9K5uK7h1EYdLXFDCCNZnUB3jzrMtVyKCA-xS3CYNElFp7mo-VaeMHVv0000]--></g></svg>