<?xml version="1.0" encoding="us-ascii" standalone="no"?><svg xmlns="http://www.w3.org/2000/svg" xmlns:xlink="http://www.w3.org/1999/xlink" contentStyleType="text/css" height="252px" preserveAspectRatio="none" style="width:116px;height:252px;background:#FFFFFF;" version="1.1" viewBox="0 0 116 252" width="116px" zoomAndPan="magnify"><defs/><g><!--class Vehicle--><g id="elem_Vehicle"><rect codeLine="3" fill="#F1F1F1" height="97.4648" id="Vehicle" rx="2.5" ry="2.5" style="stroke:#181818;stroke-width:0.5;" width="81" x="17.5" y="7"/><ellipse cx="32.5" cy="23" fill="#ADD1B2" rx="11" ry="11" style="stroke:#181818;stroke-width:1.0;"/><path d="M34.9731,29.1431 Q34.3921,29.4419 33.7529,29.5913 Q33.1138,29.7407 32.4082,29.7407 Q29.9014,29.7407 28.5815,28.0889 Q27.2617,26.437 27.2617,23.3159 Q27.2617,20.1865 28.5815,18.5347 Q29.9014,16.8828 32.4082,16.8828 Q33.1138,16.8828 33.7612,17.0322 Q34.4087,17.1816 34.9731,17.4805 L34.9731,20.2031 Q34.3423,19.6221 33.7488,19.3523 Q33.1553,19.0825 32.5244,19.0825 Q31.1797,19.0825 30.4949,20.1492 Q29.8101,21.2158 29.8101,23.3159 Q29.8101,25.4077 30.4949,26.4744 Q31.1797,27.541 32.5244,27.541 Q33.1553,27.541 33.7488,27.2712 Q34.3423,27.0015 34.9731,26.4204 Z " fill="#000000"/><text fill="#000000" font-family="sans-serif" font-size="14" lengthAdjust="spacing" textLength="49" x="46.5" y="28.291">Vehicle</text><line style="stroke:#181818;stroke-width:0.5;" x1="18.5" x2="97.5" y1="39" y2="39"/><text fill="#000000" font-family="sans-serif" font-size="14" lengthAdjust="spacing" textLength="49" x="23.5" y="56.5352">-speed</text><text fill="#000000" font-family="sans-serif" font-size="14" lengthAdjust="spacing" textLength="43" x="23.5" y="73.0234">-color</text><line style="stroke:#181818;stroke-width:0.5;" x1="18.5" x2="97.5" y1="79.9766" y2="79.9766"/><text fill="#000000" font-family="sans-serif" font-size="14" lengthAdjust="spacing" textLength="55" x="23.5" y="97.5117">+drive()</text></g><!--class Car--><g id="elem_Car"><rect codeLine="9" fill="#F1F1F1" height="80.9766" id="Car" rx="2.5" ry="2.5" style="stroke:#181818;stroke-width:0.5;" width="102" x="7" y="164.46"/><ellipse cx="42.7" cy="180.46" fill="#ADD1B2" rx="11" ry="11" style="stroke:#181818;stroke-width:1.0;"/><path d="M45.1731,186.6031 Q44.5921,186.9019 43.9529,187.0513 Q43.3138,187.2007 42.6082,187.2007 Q40.1014,187.2007 38.7815,185.5489 Q37.4617,183.897 37.4617,180.7759 Q37.4617,177.6465 38.7815,175.9947 Q40.1014,174.3428 42.6082,174.3428 Q43.3138,174.3428 43.9612,174.4922 Q44.6087,174.6416 45.1731,174.9405 L45.1731,177.6631 Q44.5423,177.0821 43.9488,176.8123 Q43.3553,176.5425 42.7244,176.5425 Q41.3797,176.5425 40.6949,177.6092 Q40.0101,178.6758 40.0101,180.7759 Q40.0101,182.8677 40.6949,183.9344 Q41.3797,185.001 42.7244,185.001 Q43.3553,185.001 43.9488,184.7312 Q44.5423,184.4615 45.1731,183.8804 Z " fill="#000000"/><text fill="#000000" font-family="sans-serif" font-size="14" lengthAdjust="spacing" textLength="24" x="61.3" y="185.751">Car</text><line style="stroke:#181818;stroke-width:0.5;" x1="8" x2="108" y1="196.46" y2="196.46"/><text fill="#000000" font-family="sans-serif" font-size="14" lengthAdjust="spacing" textLength="48" x="13" y="213.9952">-doors</text><line style="stroke:#181818;stroke-width:0.5;" x1="8" x2="108" y1="220.9483" y2="220.9483"/><text fill="#000000" font-family="sans-serif" font-size="14" lengthAdjust="spacing" textLength="90" x="13" y="238.4834">+openDoor()</text></g><!--reverse link Vehicle to Car--><g id="link_Vehicle_Car"><path codeLine="14" d="M58,122.94 C58,142.06 58,145.78 58,164 " fill="none" id="Vehicle-backto-Car" style="stroke:#181818;stroke-width:1.0;"/><polygon fill="none" points="58,104.94,52,122.94,64,122.94,58,104.94" style="stroke:#181818;stroke-width:1.0;"/></g><!--SRC=[AyxEp2j8B4hCLKZEIImkTYmfASfCAYr9zKpEpmlEh4fLCE3Y0iieXALcP2Rdf2fKSoaew2eK5wIcfe1PoVav-KL0bhP2Ib5cMQg69bSjJ8jpOX5KUKf-Vb4nM55-GMgU2v07KGSprAP6LnUad0i0]--></g></svg>