<?xml version="1.0" encoding="us-ascii" standalone="no"?><svg xmlns="http://www.w3.org/2000/svg" xmlns:xlink="http://www.w3.org/1999/xlink" contentStyleType="text/css" height="58px" preserveAspectRatio="none" style="width:626px;height:58px;background:#FFFFFF;" version="1.1" viewBox="0 0 626 58" width="626px" zoomAndPan="magnify"><defs/><g><g id="elem_customer"><rect fill="#F1F1F1" height="36.4883" style="stroke:#181818;stroke-width:0.5;" width="78" x="7" y="8.0022"/><text fill="#000000" font-family="sans-serif" font-size="14" lengthAdjust="spacing" textLength="64" x="14" y="23.5373">customer</text><line style="stroke:#181818;stroke-width:0.5;" x1="8" x2="84" y1="28.4905" y2="28.4905"/></g><g id="elem_cart"><rect fill="#F1F1F1" height="36.4883" style="stroke:#181818;stroke-width:0.5;" width="40" x="197" y="8.0022"/><text fill="#000000" font-family="sans-serif" font-size="14" lengthAdjust="spacing" textLength="26" x="204" y="23.5373">cart</text><line style="stroke:#181818;stroke-width:0.5;" x1="198" x2="236" y1="28.4905" y2="28.4905"/></g><g id="elem_cartItem"><rect fill="#F1F1F1" height="36.4883" style="stroke:#181818;stroke-width:0.5;" width="70" x="348" y="8.0022"/><text fill="#000000" font-family="sans-serif" font-size="14" lengthAdjust="spacing" textLength="56" x="355" y="23.5373">cartItem</text><line style="stroke:#181818;stroke-width:0.5;" x1="349" x2="417" y1="28.4905" y2="28.4905"/></g><g id="elem_product"><rect fill="#F1F1F1" height="36.4883" style="stroke:#181818;stroke-width:0.5;" width="68" x="552" y="8.0022"/><text fill="#000000" font-family="sans-serif" font-size="14" lengthAdjust="spacing" textLength="54" x="559" y="23.5373">product</text><line style="stroke:#181818;stroke-width:0.5;" x1="553" x2="619" y1="28.4905" y2="28.4905"/></g><!--link customer to cart--><g id="link_customer_cart"><path codeLine="7" d="M85.23,26.2422 C119.94,26.2422 163.21,26.2422 190.61,26.2422 " fill="none" id="customer-to-cart" style="stroke:#181818;stroke-width:1.0;"/><polygon fill="#181818" points="196.61,26.2422,187.61,22.2422,191.61,26.2422,187.61,30.2422,196.61,26.2422" style="stroke:#181818;stroke-width:1.0;"/><text fill="#000000" font-family="sans-serif" font-size="13" lengthAdjust="spacing" textLength="75" x="103.5" y="19.8105">1: addItem()</text></g><!--link cart to cartItem--><g id="link_cart_cartItem"><path codeLine="8" d="M237.35,26.2422 C264.8,26.2422 308.09,26.2422 341.66,26.2422 " fill="none" id="cart-to-cartItem" style="stroke:#181818;stroke-width:1.0;"/><polygon fill="#181818" points="347.66,26.2422,338.66,22.2422,342.66,26.2422,338.66,30.2422,347.66,26.2422" style="stroke:#181818;stroke-width:1.0;"/><text fill="#000000" font-family="sans-serif" font-size="13" lengthAdjust="spacing" textLength="74" x="255.5" y="19.8105">1.1: create()</text></g><!--link cartItem to cart--><g id="link_cartItem_cart"><path codeLine="9" d="M347.62,40.1222 C339.64,42.6622 331.13,44.9222 323,46.2422 C296.24,50.5822 288.52,51.8722 262,46.2422 C253.64,44.4722 250.3646,43.596 242.8746,40.056 " fill="none" id="cartItem-to-cart" style="stroke:#181818;stroke-width:1.0;"/><polygon fill="#181818" points="237.45,37.4922,243.8777,44.9544,241.9705,39.6287,247.2962,37.7215,237.45,37.4922" style="stroke:#181818;stroke-width:1.0;"/><text fill="#000000" font-family="sans-serif" font-size="13" lengthAdjust="spacing" textLength="59" x="263" y="42.8105">1.2: add()</text></g><!--link cartItem to product--><g id="link_cartItem_product"><path codeLine="10" d="M418.36,26.2422 C455.85,26.2422 508.65,26.2422 545.72,26.2422 " fill="none" id="cartItem-to-product" style="stroke:#181818;stroke-width:1.0;"/><polygon fill="#181818" points="551.72,26.2422,542.72,22.2422,546.72,26.2422,542.72,30.2422,551.72,26.2422" style="stroke:#181818;stroke-width:1.0;"/><text fill="#000000" font-family="sans-serif" font-size="13" lengthAdjust="spacing" textLength="98" x="436" y="19.8105">1.2.1: getPrice()</text></g><!--SRC=[NOqn3e0m24LtJi6eWoOwTd1tymgL4gE9gK6ylr9hqhZnUOzFd3ScHRfEZJiBn9ozQ3cFolkN3udX8WNuZh0PaeGEEuS-1BEh6j8kCriPRn-3XBro5X8e2je-LVne_laArh6mJhAIjTm0]--></g></svg>