<?xml version="1.0" encoding="us-ascii" standalone="no"?><svg xmlns="http://www.w3.org/2000/svg" xmlns:xlink="http://www.w3.org/1999/xlink" contentStyleType="text/css" height="476px" preserveAspectRatio="none" style="width:343px;height:476px;background:#FFFFFF;" version="1.1" viewBox="0 0 343 476" width="343px" zoomAndPan="magnify"><defs/><g><!--cluster Client Computer--><g id="cluster_Client Computer"><polygon fill="none" points="19,16,29,6,214,6,214,114.48,204,124.48,19,124.48,19,16" style="stroke:#181818;stroke-width:1.0;"/><line style="stroke:#181818;stroke-width:1.0;" x1="204" x2="214" y1="16" y2="6"/><line style="stroke:#181818;stroke-width:1.0;" x1="19" x2="204" y1="16" y2="16"/><line style="stroke:#181818;stroke-width:1.0;" x1="204" x2="204" y1="16" y2="124.48"/><text fill="#000000" font-family="sans-serif" font-size="14" font-style="italic" lengthAdjust="spacing" textLength="57" x="84" y="32.5352">&#171;device&#187;</text><text fill="#000000" font-family="sans-serif" font-size="14" font-weight="bold" lengthAdjust="spacing" textLength="119" x="53" y="49.0234">Client Computer</text></g><!--cluster Web Server--><g id="cluster_Web Server"><polygon fill="none" points="16,183.48,26,173.48,308,173.48,308,281.97,298,291.97,16,291.97,16,183.48" style="stroke:#181818;stroke-width:1.0;"/><line style="stroke:#181818;stroke-width:1.0;" x1="298" x2="308" y1="183.48" y2="173.48"/><line style="stroke:#181818;stroke-width:1.0;" x1="16" x2="298" y1="183.48" y2="183.48"/><line style="stroke:#181818;stroke-width:1.0;" x1="298" x2="298" y1="183.48" y2="291.97"/><text fill="#000000" font-family="sans-serif" font-size="14" font-style="italic" lengthAdjust="spacing" textLength="57" x="129.5" y="200.0152">&#171;device&#187;</text><text fill="#000000" font-family="sans-serif" font-size="14" font-weight="bold" lengthAdjust="spacing" textLength="79" x="118.5" y="216.5034">Web Server</text></g><!--cluster Database Server--><g id="cluster_Database Server"><polygon fill="none" points="27,350.97,37,340.97,326,340.97,326,449.46,316,459.46,27,459.46,27,350.97" style="stroke:#181818;stroke-width:1.0;"/><line style="stroke:#181818;stroke-width:1.0;" x1="316" x2="326" y1="350.97" y2="340.97"/><line style="stroke:#181818;stroke-width:1.0;" x1="27" x2="316" y1="350.97" y2="350.97"/><line style="stroke:#181818;stroke-width:1.0;" x1="316" x2="316" y1="350.97" y2="459.46"/><text fill="#000000" font-family="sans-serif" font-size="14" font-style="italic" lengthAdjust="spacing" textLength="57" x="144" y="367.5052">&#171;device&#187;</text><text fill="#000000" font-family="sans-serif" font-size="14" font-weight="bold" lengthAdjust="spacing" textLength="115" x="115" y="383.9934">Database Server</text></g><!--entity Web Browser--><g id="elem_Web Browser"><rect fill="#F1F1F1" height="46.4883" rx="2.5" ry="2.5" style="stroke:#181818;stroke-width:0.5;" width="128" x="38" y="62"/><rect fill="#F1F1F1" height="10" style="stroke:#181818;stroke-width:0.5;" width="15" x="146" y="67"/><rect fill="#F1F1F1" height="2" style="stroke:#181818;stroke-width:0.5;" width="4" x="144" y="69"/><rect fill="#F1F1F1" height="2" style="stroke:#181818;stroke-width:0.5;" width="4" x="144" y="73"/><text fill="#000000" font-family="sans-serif" font-size="14" lengthAdjust="spacing" textLength="88" x="53" y="95.5352">Web Browser</text></g><!--entity Apache/Nginx--><g id="elem_Apache/Nginx"><rect fill="#F1F1F1" height="46.4883" rx="2.5" ry="2.5" style="stroke:#181818;stroke-width:0.5;" width="139" x="32.5" y="229.48"/><rect fill="#F1F1F1" height="10" style="stroke:#181818;stroke-width:0.5;" width="15" x="151.5" y="234.48"/><rect fill="#F1F1F1" height="2" style="stroke:#181818;stroke-width:0.5;" width="4" x="149.5" y="236.48"/><rect fill="#F1F1F1" height="2" style="stroke:#181818;stroke-width:0.5;" width="4" x="149.5" y="240.48"/><text fill="#000000" font-family="sans-serif" font-size="14" lengthAdjust="spacing" textLength="99" x="47.5" y="263.0152">Apache/Nginx</text></g><!--entity app.war--><g id="elem_app.war"><rect fill="#F1F1F1" height="39.4883" rx="2.5" ry="2.5" style="stroke:#181818;stroke-width:0.5;" width="85" x="206.5" y="232.98"/><polygon fill="#F1F1F1" points="274.5,237.98,274.5,251.98,286.5,251.98,286.5,243.98,280.5,237.98,274.5,237.98" style="stroke:#181818;stroke-width:0.5;"/><line style="stroke:#181818;stroke-width:0.5;" x1="280.5" x2="280.5" y1="237.98" y2="243.98"/><line style="stroke:#181818;stroke-width:0.5;" x1="286.5" x2="280.5" y1="243.98" y2="243.98"/><text fill="#000000" font-family="sans-serif" font-size="14" lengthAdjust="spacing" textLength="55" x="216.5" y="259.5152">app.war</text></g><!--entity PostgreSQL--><g id="elem_PostgreSQL"><rect fill="#F1F1F1" height="46.4883" rx="2.5" ry="2.5" style="stroke:#181818;stroke-width:0.5;" width="118" x="43" y="396.97"/><rect fill="#F1F1F1" height="10" style="stroke:#181818;stroke-width:0.5;" width="15" x="141" y="401.97"/><rect fill="#F1F1F1" height="2" style="stroke:#181818;stroke-width:0.5;" width="4" x="139" y="403.97"/><rect fill="#F1F1F1" height="2" style="stroke:#181818;stroke-width:0.5;" width="4" x="139" y="407.97"/><text fill="#000000" font-family="sans-serif" font-size="14" lengthAdjust="spacing" textLength="78" x="58" y="430.5052">PostgreSQL</text></g><!--entity database.db--><g id="elem_database.db"><rect fill="#F1F1F1" height="39.4883" rx="2.5" ry="2.5" style="stroke:#181818;stroke-width:0.5;" width="114" x="196" y="400.47"/><polygon fill="#F1F1F1" points="293,405.47,293,419.47,305,419.47,305,411.47,299,405.47,293,405.47" style="stroke:#181818;stroke-width:0.5;"/><line style="stroke:#181818;stroke-width:0.5;" x1="299" x2="299" y1="405.47" y2="411.47"/><line style="stroke:#181818;stroke-width:0.5;" x1="305" x2="299" y1="411.47" y2="411.47"/><text fill="#000000" font-family="sans-serif" font-size="14" lengthAdjust="spacing" textLength="84" x="206" y="427.0052">database.db</text></g><!--link Web Browser to Apache/Nginx--><g id="link_Web Browser_Apache/Nginx"><path d="M102,108.9 C102,140.5 102,191.48 102,223.07 " fill="none" id="Web Browser-to-Apache/Nginx" style="stroke:#181818;stroke-width:1.0;"/><polygon fill="#181818" points="102,229.07,106,220.07,102,224.07,98,220.07,102,229.07" style="stroke:#181818;stroke-width:1.0;"/><text fill="#000000" font-family="sans-serif" font-size="13" lengthAdjust="spacing" textLength="33" x="103" y="154.0484">HTTP</text></g><!--link Apache/Nginx to PostgreSQL--><g id="link_Apache/Nginx_PostgreSQL"><path d="M102,276.39 C102,307.99 102,358.96 102,390.56 " fill="none" id="Apache/Nginx-to-PostgreSQL" style="stroke:#181818;stroke-width:1.0;"/><polygon fill="#181818" points="102,396.56,106,387.56,102,391.56,98,387.56,102,396.56" style="stroke:#181818;stroke-width:1.0;"/><text fill="#000000" font-family="sans-serif" font-size="13" lengthAdjust="spacing" textLength="30" x="103" y="321.5384">JDBC</text></g><!--SRC=[TOx12e9054NtynMFsMlx425r4H5XABG85q_dfGCrCuoJ1j6_PnAKKjl3lUTUfGK1Zy-Ib8DONypLaUKG188wML4Omfq170zKGcHrtv8js8CnDTPUD2FR_Mgi35ODBNQrLBTY06YTF67bWACnVe-MVpm9EYonfR-oLBUkjfJjjrELU1TzKOwwoK_ml73s0vQmplEKpUWO_DeOOfiaYjaJ]--></g></svg>