<?xml version="1.0" encoding="us-ascii" standalone="no"?><svg xmlns="http://www.w3.org/2000/svg" xmlns:xlink="http://www.w3.org/1999/xlink" contentStyleType="text/css" height="401px" preserveAspectRatio="none" style="width:178px;height:401px;background:#FFFFFF;" version="1.1" viewBox="0 0 178 401" width="178px" zoomAndPan="magnify"><defs/><g><!--entity UI Presentation--><g id="elem_UI Presentation"><path d="M14.5,6 L138.5,6 A3.75,3.75 0 0 1 141,8.5 L148,28.4883 L162.5,28.4883 A2.5,2.5 0 0 1 165,30.9883 L165,42.9883 A2.5,2.5 0 0 1 162.5,45.4883 L14.5,45.4883 A2.5,2.5 0 0 1 12,42.9883 L12,8.5 A2.5,2.5 0 0 1 14.5,6 " fill="#F1F1F1" style="stroke:#181818;stroke-width:0.5;"/><line style="stroke:#181818;stroke-width:0.5;" x1="12" x2="148" y1="28.4883" y2="28.4883"/><text fill="#000000" font-family="sans-serif" font-size="14" font-weight="bold" lengthAdjust="spacing" textLength="111" x="22" y="22.5352">UI Presentation</text></g><!--entity Business Logic--><g id="elem_Business Logic"><path d="M16.5,122.49 L136.5,122.49 A3.75,3.75 0 0 1 139,124.99 L146,144.9783 L160.5,144.9783 A2.5,2.5 0 0 1 163,147.4783 L163,159.4783 A2.5,2.5 0 0 1 160.5,161.9783 L16.5,161.9783 A2.5,2.5 0 0 1 14,159.4783 L14,124.99 A2.5,2.5 0 0 1 16.5,122.49 " fill="#F1F1F1" style="stroke:#181818;stroke-width:0.5;"/><line style="stroke:#181818;stroke-width:0.5;" x1="14" x2="146" y1="144.9783" y2="144.9783"/><text fill="#000000" font-family="sans-serif" font-size="14" font-weight="bold" lengthAdjust="spacing" textLength="107" x="24" y="139.0252">Business Logic</text></g><!--entity Data Access--><g id="elem_Data Access"><path d="M27,238.97 L126,238.97 A3.75,3.75 0 0 1 128.5,241.47 L135.5,261.4583 L150,261.4583 A2.5,2.5 0 0 1 152.5,263.9583 L152.5,275.9583 A2.5,2.5 0 0 1 150,278.4583 L27,278.4583 A2.5,2.5 0 0 1 24.5,275.9583 L24.5,241.47 A2.5,2.5 0 0 1 27,238.97 " fill="#F1F1F1" style="stroke:#181818;stroke-width:0.5;"/><line style="stroke:#181818;stroke-width:0.5;" x1="24.5" x2="135.5" y1="261.4583" y2="261.4583"/><text fill="#000000" font-family="sans-serif" font-size="14" font-weight="bold" lengthAdjust="spacing" textLength="86" x="34.5" y="255.5052">Data Access</text></g><!--entity Database Models--><g id="elem_Database Models"><path d="M8.5,355.46 L144.5,355.46 A3.75,3.75 0 0 1 147,357.96 L154,377.9483 L168.5,377.9483 A2.5,2.5 0 0 1 171,380.4483 L171,392.4483 A2.5,2.5 0 0 1 168.5,394.9483 L8.5,394.9483 A2.5,2.5 0 0 1 6,392.4483 L6,357.96 A2.5,2.5 0 0 1 8.5,355.46 " fill="#F1F1F1" style="stroke:#181818;stroke-width:0.5;"/><line style="stroke:#181818;stroke-width:0.5;" x1="6" x2="154" y1="377.9483" y2="377.9483"/><text fill="#000000" font-family="sans-serif" font-size="14" font-weight="bold" lengthAdjust="spacing" textLength="123" x="16" y="371.9952">Database Models</text></g><!--link UI Presentation to Business Logic--><g id="link_UI Presentation_Business Logic"><path d="M88.5,45.9 C88.5,67.04 88.5,94.85 88.5,116 " fill="none" id="UI Presentation-to-Business Logic" style="stroke:#181818;stroke-width:1.0;stroke-dasharray:7.0,7.0;"/><polygon fill="#181818" points="88.5,122,92.5,113,88.5,117,84.5,113,88.5,122" style="stroke:#181818;stroke-width:1.0;"/><text fill="#000000" font-family="sans-serif" font-size="13" lengthAdjust="spacing" textLength="36" x="89.5" y="89.0584">&#171;use&#187;</text></g><!--link Business Logic to Data Access--><g id="link_Business Logic_Data Access"><path d="M88.5,162.39 C88.5,183.53 88.5,211.33 88.5,232.49 " fill="none" id="Business Logic-to-Data Access" style="stroke:#181818;stroke-width:1.0;stroke-dasharray:7.0,7.0;"/><polygon fill="#181818" points="88.5,238.49,92.5,229.49,88.5,233.49,84.5,229.49,88.5,238.49" style="stroke:#181818;stroke-width:1.0;"/><text fill="#000000" font-family="sans-serif" font-size="13" lengthAdjust="spacing" textLength="36" x="89.5" y="205.5384">&#171;use&#187;</text></g><!--link Data Access to Database Models--><g id="link_Data Access_Database Models"><path d="M88.5,278.88 C88.5,300.01 88.5,327.82 88.5,348.98 " fill="none" id="Data Access-to-Database Models" style="stroke:#181818;stroke-width:1.0;stroke-dasharray:7.0,7.0;"/><polygon fill="#181818" points="88.5,354.98,92.5,345.98,88.5,349.98,84.5,345.98,88.5,354.98" style="stroke:#181818;stroke-width:1.0;"/><text fill="#000000" font-family="sans-serif" font-size="13" lengthAdjust="spacing" textLength="36" x="89.5" y="322.0284">&#171;use&#187;</text></g><!--SRC=[AqXCpavCJrLG2lLK22XABKxDAqaioSpFKrAevghbuYg0IJkL5cVcfHONA_ZafsSceykw99OaAZWc9mCLO9DAIYnELV3DJqdDWKb7eraNgw2dPwSGZMfBh8ALWerDQN6gdHqNXXHOFPAzA8fHnE4gaPo1h1e0]--></g></svg>