<?xml version="1.0" encoding="us-ascii" standalone="no"?><svg xmlns="http://www.w3.org/2000/svg" xmlns:xlink="http://www.w3.org/1999/xlink" contentStyleType="text/css" height="598px" preserveAspectRatio="none" style="width:328px;height:598px;background:#FFFFFF;" version="1.1" viewBox="0 0 328 598" width="328px" zoomAndPan="magnify"><defs/><g><ellipse cx="146" cy="16" fill="#222222" rx="10" ry="10" style="stroke:#222222;stroke-width:1.0;"/><g id="Draft"><rect fill="#F1F1F1" height="78.8867" rx="12.5" ry="12.5" style="stroke:#181818;stroke-width:0.5;" width="126" x="83" y="103"/><line style="stroke:#181818;stroke-width:0.5;" x1="83" x2="209" y1="129.4883" y2="129.4883"/><text fill="#000000" font-family="sans-serif" font-size="14" lengthAdjust="spacing" textLength="34" x="129" y="121.5352">Draft</text><text fill="#000000" font-family="sans-serif" font-size="12" lengthAdjust="spacing" textLength="106" x="88" y="146.0898">entry/validateUser</text><text fill="#000000" font-family="sans-serif" font-size="12" lengthAdjust="spacing" textLength="101" x="88" y="160.2227">do/editDocument</text><text fill="#000000" font-family="sans-serif" font-size="12" lengthAdjust="spacing" textLength="102" x="88" y="174.3555">exit/saveChanges</text></g><g id="Review"><rect fill="#F1F1F1" height="78.8867" rx="12.5" ry="12.5" style="stroke:#181818;stroke-width:0.5;" width="138" x="77" y="258.89"/><line style="stroke:#181818;stroke-width:0.5;" x1="77" x2="215" y1="285.3783" y2="285.3783"/><text fill="#000000" font-family="sans-serif" font-size="14" lengthAdjust="spacing" textLength="47" x="122.5" y="277.4252">Review</text><text fill="#000000" font-family="sans-serif" font-size="12" lengthAdjust="spacing" textLength="118" x="82" y="301.9798">entry/notifyReviewer</text><text fill="#000000" font-family="sans-serif" font-size="12" lengthAdjust="spacing" textLength="102" x="82" y="316.1127">do/reviewContent</text><text fill="#000000" font-family="sans-serif" font-size="12" lengthAdjust="spacing" textLength="84" x="82" y="330.2455">exit/logReview</text></g><g id="Rejected"><rect fill="#F1F1F1" height="78.8867" rx="12.5" ry="12.5" style="stroke:#181818;stroke-width:0.5;" width="124" x="7" y="414.77"/><line style="stroke:#181818;stroke-width:0.5;" x1="7" x2="131" y1="441.2583" y2="441.2583"/><text fill="#000000" font-family="sans-serif" font-size="14" lengthAdjust="spacing" textLength="58" x="40" y="433.3052">Rejected</text><text fill="#000000" font-family="sans-serif" font-size="12" lengthAdjust="spacing" textLength="104" x="12" y="457.8598">entry/notifyAuthor</text><text fill="#000000" font-family="sans-serif" font-size="12" lengthAdjust="spacing" textLength="104" x="12" y="471.9927">do/displayReason</text><text fill="#000000" font-family="sans-serif" font-size="12" lengthAdjust="spacing" textLength="84" x="12" y="486.1255">exit/clearFlags</text></g><g id="Published"><rect fill="#F1F1F1" height="78.8867" rx="12.5" ry="12.5" style="stroke:#181818;stroke-width:0.5;" width="155" x="166.5" y="414.77"/><line style="stroke:#181818;stroke-width:0.5;" x1="166.5" x2="321.5" y1="441.2583" y2="441.2583"/><text fill="#000000" font-family="sans-serif" font-size="14" lengthAdjust="spacing" textLength="67" x="210.5" y="433.3052">Published</text><text fill="#000000" font-family="sans-serif" font-size="12" lengthAdjust="spacing" textLength="135" x="171.5" y="457.8598">entry/publishDocument</text><text fill="#000000" font-family="sans-serif" font-size="12" lengthAdjust="spacing" textLength="83" x="171.5" y="471.9927">do/trackViews</text><text fill="#000000" font-family="sans-serif" font-size="12" lengthAdjust="spacing" textLength="122" x="171.5" y="486.1255">exit/finalizeMetadata</text></g><ellipse cx="244" cy="581.66" fill="none" rx="11" ry="11" style="stroke:#222222;stroke-width:1.0;"/><ellipse cx="244" cy="581.66" fill="#222222" rx="6" ry="6" style="stroke:#222222;stroke-width:1.0;"/><!--link *start* to Draft--><g id="link_*start*_Draft"><path d="M146,26.35 C146,42.35 146,69.82 146,96.57 " fill="none" id="*start*-to-Draft" style="stroke:#181818;stroke-width:1.0;"/><polygon fill="#181818" points="146,102.57,150,93.57,146,97.57,142,93.57,146,102.57" style="stroke:#181818;stroke-width:1.0;"/><text fill="#000000" font-family="sans-serif" font-size="13" lengthAdjust="spacing" textLength="38" x="147" y="69.5684">create</text></g><!--link Draft to Review--><g id="link_Draft_Review"><path d="M146,182.28 C146,205.6 146,229.18 146,252.51 " fill="none" id="Draft-to-Review" style="stroke:#181818;stroke-width:1.0;"/><polygon fill="#181818" points="146,258.51,150,249.51,146,253.51,142,249.51,146,258.51" style="stroke:#181818;stroke-width:1.0;"/><text fill="#000000" font-family="sans-serif" font-size="13" lengthAdjust="spacing" textLength="44" x="147" y="225.4584">submit</text></g><!--link Review to Review--><g id="link_Review_Review"><path d="M215.01,283.77 C234.77,284.34 250,289.2 250,298.33 C250,307.46 240.7675,312.147 221.0075,312.717 " fill="none" id="Review-to-Review" style="stroke:#181818;stroke-width:1.0;"/><polygon fill="#181818" points="215.01,312.89,224.1216,316.6288,220.0079,312.7458,223.8909,308.6322,215.01,312.89" style="stroke:#181818;stroke-width:1.0;"/><text fill="#000000" font-family="sans-serif" font-size="13" lengthAdjust="spacing" textLength="37" x="256" y="303.3984">revise</text></g><!--link Review to Rejected--><g id="link_Review_Rejected"><path d="M87.95,337.97 C79.04,346.66 71.12,356.65 66,367.77 C59.42,382.06 58.1928,393.2008 59.7328,408.3408 " fill="none" id="Review-to-Rejected" style="stroke:#181818;stroke-width:1.0;"/><polygon fill="#181818" points="60.34,414.31,63.4087,404.9514,59.834,409.3357,55.4498,405.761,60.34,414.31" style="stroke:#181818;stroke-width:1.0;"/><text fill="#000000" font-family="sans-serif" font-size="13" lengthAdjust="spacing" textLength="35" x="67" y="381.3384">reject</text></g><!--link Rejected to Review--><g id="link_Rejected_Review"><path d="M91.24,414.41 C96.55,404.8 102.1,394.48 107,384.77 C114.64,369.63 120.0467,358.161 126.6967,343.391 " fill="none" id="Rejected-to-Review" style="stroke:#181818;stroke-width:1.0;"/><polygon fill="#181818" points="129.16,337.92,121.8177,344.4844,127.1073,342.4792,129.1125,347.7687,129.16,337.92" style="stroke:#181818;stroke-width:1.0;"/><text fill="#000000" font-family="sans-serif" font-size="13" lengthAdjust="spacing" textLength="37" x="115.92" y="381.3384">revise</text></g><!--link Review to Published--><g id="link_Review_Published"><path d="M170.73,338.16 C185.59,361.49 201.1966,386.0094 216.0566,409.3394 " fill="none" id="Review-to-Published" style="stroke:#181818;stroke-width:1.0;"/><polygon fill="#181818" points="219.28,414.4,217.8187,404.6602,216.5939,410.1828,211.0712,408.958,219.28,414.4" style="stroke:#181818;stroke-width:1.0;"/><text fill="#000000" font-family="sans-serif" font-size="13" lengthAdjust="spacing" textLength="50" x="198.94" y="381.3384">approve</text></g><!--link Published to *end*--><g id="link_Published_*end*"><path d="M244,493.88 C244,520.37 244,547.61 244,564.21 " fill="none" id="Published-to-*end*" style="stroke:#181818;stroke-width:1.0;"/><polygon fill="#181818" points="244,570.21,248,561.21,244,565.21,240,561.21,244,570.21" style="stroke:#181818;stroke-width:1.0;"/><text fill="#000000" font-family="sans-serif" font-size="13" lengthAdjust="spacing" textLength="45" x="245" y="537.2284">archive</text></g><!--SRC=[RP91JyCm38Nl-HKz8qszSq12cxWX8IHscJXugTi6igHAtC90_7Vi9hJPnAcHdr_ylTI7czTgixchTW5Qgcuh7H08bOh4drpzLjMYewDmhYUmfk66buYX41jVOsDev_LuuiRIzcceZZ3XjWVNOLG_IYLDXZ_ZPF23s-9uF1dwcvxBCdxfIFET9zEUKt4cM7H62FDvwnqbXjKh4DPtgI08MRfW47l4I-aDDM4pYt8inQVnQ4tiPnM68VW9L_xiImcMIyeCzoFrFbpgdA4nSR302I5wT-MM5DeYX0SBNKmnilfVa0opSWfDIPrmXbGf_btPmqWKGB_l-UfuxHUWrZZUYIzyH0BU312ijKcu3hnf_4H1zuQVw1S0]--></g></svg>